<svg class="lds-spinner" width="300px"  height="300px"  xmlns="http://www.w3.org/2000/svg" xmlns:xlink="http://www.w3.org/1999/xlink" viewBox="0 0 100 100" preserveAspectRatio="xMidYMid" style="background: rgb(255, 255, 255);"><g transform="rotate(0 50 50)">
  <rect x="47" y="35" rx="9.4" ry="7" width="6" height="6" fill="#003663">
    <animate attributeName="opacity" values="1;0" times="0;1" dur="1.4s" begin="-1.2444444444444445s" repeatCount="indefinite"></animate>
  </rect>
</g><g transform="rotate(40 50 50)">
  <rect x="47" y="35" rx="9.4" ry="7" width="6" height="6" fill="#003663">
    <animate attributeName="opacity" values="1;0" times="0;1" dur="1.4s" begin="-1.0888888888888888s" repeatCount="indefinite"></animate>
  </rect>
</g><g transform="rotate(80 50 50)">
  <rect x="47" y="35" rx="9.4" ry="7" width="6" height="6" fill="#003663">
    <animate attributeName="opacity" values="1;0" times="0;1" dur="1.4s" begin="-0.9333333333333331s" repeatCount="indefinite"></animate>
  </rect>
</g><g transform="rotate(120 50 50)">
  <rect x="47" y="35" rx="9.4" ry="7" width="6" height="6" fill="#003663">
    <animate attributeName="opacity" values="1;0" times="0;1" dur="1.4s" begin="-0.7777777777777778s" repeatCount="indefinite"></animate>
  </rect>
</g><g transform="rotate(160 50 50)">
  <rect x="47" y="35" rx="9.4" ry="7" width="6" height="6" fill="#003663">
    <animate attributeName="opacity" values="1;0" times="0;1" dur="1.4s" begin="-0.6222222222222222s" repeatCount="indefinite"></animate>
  </rect>
</g><g transform="rotate(200 50 50)">
  <rect x="47" y="35" rx="9.4" ry="7" width="6" height="6" fill="#003663">
    <animate attributeName="opacity" values="1;0" times="0;1" dur="1.4s" begin="-0.46666666666666656s" repeatCount="indefinite"></animate>
  </rect>
</g><g transform="rotate(240 50 50)">
  <rect x="47" y="35" rx="9.4" ry="7" width="6" height="6" fill="#003663">
    <animate attributeName="opacity" values="1;0" times="0;1" dur="1.4s" begin="-0.3111111111111111s" repeatCount="indefinite"></animate>
  </rect>
</g><g transform="rotate(280 50 50)">
  <rect x="47" y="35" rx="9.4" ry="7" width="6" height="6" fill="#003663">
    <animate attributeName="opacity" values="1;0" times="0;1" dur="1.4s" begin="-0.15555555555555556s" repeatCount="indefinite"></animate>
  </rect>
</g><g transform="rotate(320 50 50)">
  <rect x="47" y="35" rx="9.4" ry="7" width="6" height="6" fill="#003663">
    <animate attributeName="opacity" values="1;0" times="0;1" dur="1.4s" begin="0s" repeatCount="indefinite"></animate>
  </rect>
</g></svg>